<svg version="1.1" xmlns="http://www.w3.org/2000/svg" xmlns:xlink="http://www.w3.org/1999/xlink" width="20.9" height="37.3"><g transform="translate(-229.2,-165.95)"><g data-paper-data="{&quot;isPaintingLayer&quot;:true}" fill="none" fill-rule="nonzero" stroke="none" stroke-width="none" stroke-linecap="none" stroke-linejoin="miter" stroke-miterlimit="10" stroke-dasharray="" stroke-dashoffset="0" font-family="none" font-weight="none" font-size="none" text-anchor="none" style="mix-blend-mode: normal"><g><path d="M239.75,165.95c1.421,0 2.708,0.608 3.641,1.59c0.932,0.982 1.509,2.338 1.509,3.835c0,1.497 -0.577,2.853 -1.509,3.835c-0.933,0.982 -2.22,1.59 -3.641,1.59c-1.421,0 -2.708,-0.608 -3.641,-1.59c-0.932,-0.982 -1.509,-2.338 -1.509,-3.835c0,-1.497 0.577,-2.853 1.509,-3.835c0.933,-0.982 2.22,-1.59 3.641,-1.59z" id="ID0.6086816429160535" fill="#2e2e2e" stroke="none" stroke-width="1" stroke-linecap="butt"/><path d="M246.4,201.6l-0.75,-6.85l-5.95,-6.95l-0.1,-11.9" id="ID0.23041497357189655" fill="none" stroke="#2e2e2e" stroke-width="3" stroke-linecap="round"/><path d="M239.6,187.9l-1.95,8.7l-4.35,5.15" id="ID0.7865429394878447" fill="none" stroke="#2e2e2e" stroke-width="3" stroke-linecap="round"/><path d="M230.7,188.1l3.8,-6.75l4.5,-1.9" id="ID0.45581132266670465" fill="none" stroke="#2e2e2e" stroke-width="3" stroke-linecap="round"/><path d="M240.5,179.4l5,2.5l3.1,4.9" id="ID0.744470130186528" fill="none" stroke="#2e2e2e" stroke-width="3" stroke-linecap="round"/></g></g></g></svg>